<svg width="64" height="64" viewBox="0 0 64 64" fill="none" xmlns="http://www.w3.org/2000/svg">
<path d="M0 32C0 14.3269 14.3269 0 32 0C49.6731 0 64 14.3269 64 32C64 49.6731 49.6731 64 32 64C14.3269 64 0 49.6731 0 32Z" fill="#F3ECFE"/>
<path d="M35.9999 45.3334V40C36.1854 38.3297 35.7065 36.6535 34.6666 35.3334C38.6666 35.3334 42.6666 32.6667 42.6666 28C42.7732 26.3334 42.3066 24.6934 41.3332 23.3334C41.7066 21.8 41.7066 20.2 41.3332 18.6667C41.3332 18.6667 39.9999 18.6667 37.3332 20.6667C33.8132 20 30.1866 20 26.6666 20.6667C23.9999 18.6667 22.6666 18.6667 22.6666 18.6667C22.2666 20.2 22.2666 21.8 22.6666 23.3334C21.6957 24.6879 21.2245 26.3371 21.3332 28C21.3332 32.6667 25.3332 35.3334 29.3332 35.3334C28.8132 35.9867 28.4266 36.7334 28.1999 37.5334C27.9732 38.3334 27.9066 39.1734 27.9999 40V45.3334" stroke="#AD7FF5" stroke-width="2.66667" stroke-linecap="round" stroke-linejoin="round"/>
<path d="M28.0001 40C21.9867 42.6666 21.3334 37.3333 18.6667 37.3333" stroke="#AD7FF5" stroke-width="2.66667" stroke-linecap="round" stroke-linejoin="round"/>
</svg>
