<svg width="122" height="40" viewBox="0 0 122 40" fill="none" xmlns="http://www.w3.org/2000/svg">
<g clip-path="url(#clip0_38_224)">
<path d="M47.5827 8.34119H52.6316V22.4526C52.6316 26.9106 49.9168 29.2714 45.8128 29.2714C41.7087 29.2714 38.5814 26.7909 38.5814 22.1279H43.601C43.601 23.9004 44.3676 24.7548 45.6664 24.7548C46.8774 24.7548 47.5853 23.9883 47.5853 22.4526V8.34119H47.5827Z" fill="#F7F2FE"/>
<path d="M64.2012 29.3007C59.3599 29.3007 55.7003 26.0536 55.7003 20.829C55.7003 15.6045 59.4504 12.3574 64.2624 12.3574C69.0745 12.3574 72.8245 15.6045 72.8245 20.829C72.8245 26.0536 69.0452 29.3007 64.2039 29.3007H64.2012ZM64.2012 24.9304C66.0031 24.9304 67.6851 23.6023 67.6851 20.8264C67.6851 18.0504 66.0323 16.7223 64.2598 16.7223C62.4872 16.7223 60.8344 18.0211 60.8344 20.8264C60.8344 23.6316 62.3701 24.9304 64.1986 24.9304H64.2012Z" fill="#F7F2FE"/>
<path d="M85.6344 12.3574C89.7092 12.3574 92.8977 15.6045 92.8977 20.7998C92.8977 25.9951 89.6799 29.3007 85.6344 29.3007C83.2151 29.3007 81.4718 28.2095 80.5562 26.7616V29.0638H75.5073V7.2207H80.5562V14.9258C81.4718 13.4487 83.271 12.3574 85.6344 12.3574ZM84.128 16.7569C82.2383 16.7569 80.5269 18.2021 80.5269 20.8317C80.5269 23.4613 82.2383 24.9065 84.128 24.9065C86.0177 24.9065 87.7583 23.432 87.7583 20.8024C87.7583 18.1729 86.0469 16.7569 84.128 16.7569Z" fill="#F7F2FE"/>
<path d="M95.554 7.2207H100.603V29.0638H95.554V7.2207Z" fill="#F7F2FE"/>
<path d="M115.627 12.5917H121.089L110.757 36.886H105.324L109.104 28.5022L102.402 12.5917H108.042L111.851 22.8944L115.63 12.5917H115.627Z" fill="#F7F2FE"/>
<path d="M32.7367 12.6236C32.7367 12.5464 32.7314 12.4745 32.7207 12.4C32.6835 11.6974 32.5291 11.0081 32.2576 10.348C31.9436 9.58946 31.4885 8.91077 30.9109 8.33588L24.3875 1.81516C23.81 1.23761 23.1339 0.785149 22.3727 0.468428C21.6195 0.15703 20.8237 0 20.0146 0H5.45612C3.99761 0 2.62692 0.566904 1.59691 1.59691C0.582873 2.61095 0 4.0189 0 5.45346V34.5465C0 36.0024 0.566904 37.3731 1.59691 38.4004C2.62692 39.4331 3.99761 40 5.45612 40H27.2753C28.7338 40 30.1045 39.4331 31.1318 38.4031C32.1618 37.3731 32.7287 36.0051 32.7287 34.5465V12.77C32.7314 12.7221 32.7367 12.6742 32.7367 12.6263V12.6236ZM28.3186 10.8883H22.3302V4.89986L28.3186 10.8909V10.8883ZM28.5608 35.8294C28.2174 36.1727 27.7623 36.3617 27.2753 36.3617H5.45612C4.96906 36.3617 4.51394 36.1727 4.1706 35.8294C3.82727 35.4861 3.6383 35.0283 3.6383 34.5439V5.45346C3.6383 4.97438 3.83259 4.50596 4.1706 4.16794C4.51394 3.82461 4.96906 3.63564 5.45612 3.63564H18.8595V10.8909C18.8595 11.8172 19.2215 12.6875 19.8762 13.3422C20.531 13.9969 21.404 14.3589 22.3302 14.3589H29.0931V34.5465C29.0931 35.0309 28.9041 35.4887 28.5608 35.8321V35.8294Z" fill="#E6D7FC"/>
<path d="M12.9981 11.6446C13.4942 10.4468 12.9254 9.07365 11.7276 8.57752C10.5299 8.08138 9.15668 8.65017 8.66054 9.84795C8.1644 11.0457 8.7332 12.4189 9.93098 12.9151C11.1288 13.4112 12.5019 12.8424 12.9981 11.6446Z" fill="#E6D7FC"/>
<path d="M6.6219 18.9607H15.035C15.2319 18.9607 15.3943 18.801 15.3943 18.6014V15.4129C15.3943 14.3456 14.5293 13.4806 13.462 13.4806H8.19752C7.13025 13.4806 6.26526 14.3456 6.26526 15.4129V18.6014C6.26526 18.7983 6.42495 18.9607 6.62456 18.9607H6.6219Z" fill="#E6D7FC"/>
<path d="M25.0796 21.6035H6.73371C6.30449 21.6035 5.95654 21.9515 5.95654 22.3807V22.5803C5.95654 23.0095 6.30449 23.3575 6.73371 23.3575H25.0796C25.5088 23.3575 25.8567 23.0095 25.8567 22.5803V22.3807C25.8567 21.9515 25.5088 21.6035 25.0796 21.6035Z" fill="#E6D7FC"/>
<path d="M23.3203 24.4514H6.73371C6.30449 24.4514 5.95654 24.7994 5.95654 25.2286V25.4282C5.95654 25.8574 6.30449 26.2054 6.73371 26.2054H23.3203C23.7495 26.2054 24.0975 25.8574 24.0975 25.4282V25.2286C24.0975 24.7994 23.7495 24.4514 23.3203 24.4514Z" fill="#E6D7FC"/>
<path d="M21.3827 27.3019H6.73371C6.30449 27.3019 5.95654 27.6498 5.95654 28.079V28.2787C5.95654 28.7079 6.30449 29.0558 6.73371 29.0558H21.3827C21.8119 29.0558 22.1599 28.7079 22.1599 28.2787V28.079C22.1599 27.6498 21.8119 27.3019 21.3827 27.3019Z" fill="#E6D7FC"/>
<path d="M19.1683 29.9315H6.73371C6.30449 29.9315 5.95654 30.2795 5.95654 30.7087V30.9083C5.95654 31.3375 6.30449 31.6855 6.73371 31.6855H19.1683C19.5976 31.6855 19.9455 31.3375 19.9455 30.9083V30.7087C19.9455 30.2795 19.5976 29.9315 19.1683 29.9315Z" fill="#E6D7FC"/>
</g>
<defs>
<clipPath id="clip0_38_224">
<rect width="121.089" height="40" fill="white"/>
</clipPath>
</defs>
</svg>
